<svg width="164" height="38" viewBox="0 0 164 38" fill="none" xmlns="http://www.w3.org/2000/svg">
<g filter="url(#filter0_dd_13001_399)">
<rect x="3.1" y="2.1" width="31.8" height="31.8" rx="7.9" fill="white"/>
<rect x="3.1" y="2.1" width="31.8" height="31.8" rx="7.9" fill="url(#paint0_linear_13001_399)"/>
<rect x="3.1" y="2.1" width="31.8" height="31.8" rx="7.9" stroke="#D0D5DD" stroke-width="0.2"/>
<path d="M18.3546 13.1828C22.7105 11.4504 27.4742 12.8185 29.6373 14.9133C30.106 15.3671 30.5041 15.8275 30.845 16.2852C31.0394 15.2107 31.0552 14.1405 30.8681 13.1055C30.1847 9.32649 26.6195 7.18561 23.4233 8.29149C20.2415 9.3924 19.0005 11.5321 19.0005 11.5321C19.0005 11.5321 17.7595 9.3924 14.5777 8.29149C11.3812 7.18561 7.81603 9.32672 7.1328 13.1055C6.62842 15.8944 7.58356 18.9392 9.61033 21.6298C10.0372 21.7732 10.4847 21.8809 10.9586 21.9431C13.7978 22.3163 14.8184 21.557 16.0178 21.0486C16.8142 20.7113 17.4134 21.0942 17.3843 21.3626C17.3392 21.7786 15.7693 22.4895 16.106 22.6388C17.4351 23.2285 19.0718 23.2334 20.3053 22.18C21.838 20.8712 22.4114 21.7659 22.4114 21.7659C22.4114 21.7659 21.6502 23.7076 19.3581 24.6717C17.4457 25.4761 15.4419 25.6743 13.6107 25.4683C15.19 26.5846 17.0035 27.5204 19.0005 28.1883C24.7099 26.2784 28.9276 22.1871 30.4145 17.9096C29.4072 16.9157 28.1716 16.2996 26.6988 16.0763C23.8674 15.6471 22.8322 16.3863 21.6228 16.8708C20.8198 17.1926 20.2285 16.7978 20.263 16.5299C20.3161 16.1148 21.8999 15.4351 21.5661 15.279C20.249 14.6633 18.6125 14.626 17.3585 15.6549C15.8003 16.9332 15.2446 16.0274 15.2446 16.0274C15.2446 16.0274 16.0438 14.1015 18.3546 13.1828ZM17.2709 18.5052H18.3709V17.4052H19.6296V18.5052H20.7296V19.7639H19.6296V20.8639H18.3709V19.7639H17.2709V18.5052Z" fill="url(#paint1_linear_13001_399)"/>
<path d="M17.2709 18.5052H18.3709V17.4052H19.6296V18.5052H20.7295V19.7639H19.6378C21.2597 20.5834 24.2383 21.8027 27.8177 22.3451C28.9956 20.9517 29.8813 19.4428 30.4143 17.9096C29.4069 16.9157 28.1713 16.2996 26.6986 16.0763C23.8672 15.647 22.8319 16.3863 21.6226 16.8708C20.8196 17.1926 20.2282 16.7978 20.2627 16.5299C20.3159 16.1148 21.8997 15.4351 21.5659 15.279C20.2488 14.6633 18.6123 14.626 17.3583 15.6548C15.8 16.9332 15.2443 16.0274 15.2443 16.0274C15.2443 16.0274 16.0438 14.1013 18.3543 13.1823C22.7102 11.4499 27.4739 12.818 29.637 14.9128C30.1057 15.3666 30.5038 15.8271 30.8447 16.2847C31.0392 15.2102 31.055 14.14 30.8679 13.105C30.1844 9.326 26.6192 7.18512 23.423 8.291C20.2412 9.39191 19.0002 11.5316 19.0002 11.5316C19.0002 11.5316 17.7592 9.39191 14.5774 8.291C12.7519 7.65927 10.8067 8.0883 9.34619 9.27521C10.0323 10.7442 10.836 12.1168 13.1254 14.8773C14.9868 17.1222 17.2709 18.5052 17.2709 18.5052Z" fill="url(#paint2_linear_13001_399)"/>
<path opacity="0.31" d="M27.277 9.64954C24.2712 8.13944 21.169 10.4892 20.1851 11.7299C21.882 11.3725 23.3668 11.1892 25.2457 11.5839C28.0252 12.1679 29.0654 13.1715 30.3064 14.6542C30.0871 11.9069 28.3519 10.1896 27.277 9.64954Z" fill="url(#paint3_linear_13001_399)"/>
</g>
<path d="M51.504 28L45.264 10.12H48.816L53.712 24.928H53.016L57.912 10.12H61.464L55.248 28H51.504ZM63.1984 28V14.944H66.3424V28H63.1984ZM63.1984 13.48V10.12H66.3424V13.48H63.1984ZM75.1973 28.144C73.7253 28.144 72.5813 27.744 71.7653 26.944C70.9653 26.128 70.5653 24.984 70.5653 23.512V17.752H68.3093V14.944H68.5493C69.1893 14.944 69.6853 14.776 70.0373 14.44C70.3893 14.104 70.5653 13.616 70.5653 12.976V11.968H73.7093V14.944H76.7093V17.752H73.7093V23.344C73.7093 23.776 73.7813 24.144 73.9253 24.448C74.0853 24.752 74.3253 24.984 74.6453 25.144C74.9813 25.304 75.4053 25.384 75.9173 25.384C76.0293 25.384 76.1573 25.376 76.3013 25.36C76.4613 25.344 76.6133 25.328 76.7573 25.312V28C76.5333 28.032 76.2773 28.064 75.9893 28.096C75.7013 28.128 75.4373 28.144 75.1973 28.144ZM83.0724 28.288C82.1604 28.288 81.3684 28.136 80.6964 27.832C80.0244 27.528 79.5044 27.096 79.1364 26.536C78.7684 25.96 78.5844 25.296 78.5844 24.544C78.5844 23.824 78.7444 23.184 79.0644 22.624C79.3844 22.048 79.8804 21.568 80.5524 21.184C81.2244 20.8 82.0724 20.528 83.0964 20.368L87.3684 19.672V22.072L83.6964 22.696C83.0724 22.808 82.6084 23.008 82.3044 23.296C82.0004 23.584 81.8484 23.96 81.8484 24.424C81.8484 24.872 82.0164 25.232 82.3524 25.504C82.7044 25.76 83.1364 25.888 83.6484 25.888C84.3044 25.888 84.8804 25.752 85.3764 25.48C85.8884 25.192 86.2804 24.8 86.5524 24.304C86.8404 23.808 86.9844 23.264 86.9844 22.672V19.312C86.9844 18.752 86.7604 18.288 86.3124 17.92C85.8804 17.536 85.3044 17.344 84.5844 17.344C83.9124 17.344 83.3124 17.528 82.7844 17.896C82.2724 18.248 81.8964 18.72 81.6564 19.312L79.0884 18.064C79.3444 17.376 79.7444 16.784 80.2884 16.288C80.8484 15.776 81.5044 15.376 82.2564 15.088C83.0084 14.8 83.8244 14.656 84.7044 14.656C85.7764 14.656 86.7204 14.856 87.5364 15.256C88.3524 15.64 88.9844 16.184 89.4324 16.888C89.8964 17.576 90.1284 18.384 90.1284 19.312V28H87.1524V25.768L87.8244 25.72C87.4884 26.28 87.0884 26.752 86.6244 27.136C86.1604 27.504 85.6324 27.792 85.0404 28C84.4484 28.192 83.7924 28.288 83.0724 28.288ZM93.0343 28V9.832H96.1783V28H93.0343ZM99.0812 28V14.944H102.225V28H99.0812ZM99.0812 13.48V10.12H102.225V13.48H99.0812ZM110.096 28.288C108.704 28.288 107.488 27.96 106.448 27.304C105.424 26.632 104.72 25.728 104.336 24.592L106.688 23.464C107.024 24.2 107.488 24.776 108.08 25.192C108.688 25.608 109.36 25.816 110.096 25.816C110.672 25.816 111.128 25.688 111.464 25.432C111.8 25.176 111.968 24.84 111.968 24.424C111.968 24.168 111.896 23.96 111.752 23.8C111.624 23.624 111.44 23.48 111.2 23.368C110.976 23.24 110.728 23.136 110.456 23.056L108.32 22.456C107.216 22.136 106.376 21.648 105.8 20.992C105.24 20.336 104.96 19.56 104.96 18.664C104.96 17.864 105.16 17.168 105.56 16.576C105.976 15.968 106.544 15.496 107.264 15.16C108 14.824 108.84 14.656 109.784 14.656C111.016 14.656 112.104 14.952 113.048 15.544C113.992 16.136 114.664 16.968 115.064 18.04L112.664 19.168C112.44 18.576 112.064 18.104 111.536 17.752C111.008 17.4 110.416 17.224 109.76 17.224C109.232 17.224 108.816 17.344 108.512 17.584C108.208 17.824 108.056 18.136 108.056 18.52C108.056 18.76 108.12 18.968 108.248 19.144C108.376 19.32 108.552 19.464 108.776 19.576C109.016 19.688 109.288 19.792 109.592 19.888L111.68 20.512C112.752 20.832 113.576 21.312 114.152 21.952C114.744 22.592 115.04 23.376 115.04 24.304C115.04 25.088 114.832 25.784 114.416 26.392C114 26.984 113.424 27.448 112.688 27.784C111.952 28.12 111.088 28.288 110.096 28.288Z" fill="white"/>
<defs>
<filter id="filter0_dd_13001_399" x="0" y="0" width="38" height="38" filterUnits="userSpaceOnUse" color-interpolation-filters="sRGB">
<feFlood flood-opacity="0" result="BackgroundImageFix"/>
<feColorMatrix in="SourceAlpha" type="matrix" values="0 0 0 0 0 0 0 0 0 0 0 0 0 0 0 0 0 0 127 0" result="hardAlpha"/>
<feOffset dy="1"/>
<feGaussianBlur stdDeviation="1"/>
<feColorMatrix type="matrix" values="0 0 0 0 0.0627451 0 0 0 0 0.0941176 0 0 0 0 0.156863 0 0 0 0.06 0"/>
<feBlend mode="normal" in2="BackgroundImageFix" result="effect1_dropShadow_13001_399"/>
<feColorMatrix in="SourceAlpha" type="matrix" values="0 0 0 0 0 0 0 0 0 0 0 0 0 0 0 0 0 0 127 0" result="hardAlpha"/>
<feOffset dy="1"/>
<feGaussianBlur stdDeviation="1.5"/>
<feColorMatrix type="matrix" values="0 0 0 0 0.0627451 0 0 0 0 0.0941176 0 0 0 0 0.156863 0 0 0 0.1 0"/>
<feBlend mode="normal" in2="effect1_dropShadow_13001_399" result="effect2_dropShadow_13001_399"/>
<feBlend mode="normal" in="SourceGraphic" in2="effect2_dropShadow_13001_399" result="shape"/>
</filter>
<linearGradient id="paint0_linear_13001_399" x1="19" y1="2" x2="19" y2="34" gradientUnits="userSpaceOnUse">
<stop stop-color="white"/>
<stop offset="1" stop-color="#D0D5DD"/>
</linearGradient>
<linearGradient id="paint1_linear_13001_399" x1="10.1989" y1="24.2137" x2="27.8347" y2="6.57791" gradientUnits="userSpaceOnUse">
<stop stop-color="#0076C1"/>
<stop offset="0.0737" stop-color="#0B82C6"/>
<stop offset="0.2766" stop-color="#269ED3"/>
<stop offset="0.4546" stop-color="#36AFDA"/>
<stop offset="0.587" stop-color="#3CB5DD"/>
</linearGradient>
<linearGradient id="paint2_linear_13001_399" x1="10.1388" y1="24.2537" x2="27.8274" y2="6.56509" gradientUnits="userSpaceOnUse">
<stop stop-color="#00A482"/>
<stop offset="1" stop-color="#79DD83"/>
</linearGradient>
<linearGradient id="paint3_linear_13001_399" x1="24.8608" y1="13.5073" x2="28.5288" y2="10.1132" gradientUnits="userSpaceOnUse">
<stop stop-color="#00A482"/>
<stop offset="1" stop-color="#79DD83"/>
</linearGradient>
</defs>
</svg>
